# xmcd
#
# Track frame offsets: 
#        150
#        12605
#        29825
#        44603
#        62549
#        77515
#        97220
#        115827
#        132079
#        148469
#        168951
#        188134
#        202974
#        218388
#        237778
#        254427
#
# Disc length: 3619 seconds
#
# Revision: 0
# Processed by: cddbd v1.5.2PL0 Copyright (c) Steve Scherf et al.
# Submitted via: ExactAudioCopyFreeDBPlugin 1.0
#
DISCID=e60e2110
DTITLE=Faith Hill - The Music Of Faith Hill
DYEAR=2005
DGENRE=Country
TTITLE0=Faith Hill
TTITLE1=But I Will
TTITLE2=It Matters To Me
TTITLE3=I Can't Do That Anymore
TTITLE4=This Kiss
TTITLE5=The Secret Of Life
TTITLE6=Breathe
TTITLE7=If My Heart Had Wings
TTITLE8=Bringing Out The Elvis
TTITLE9=There Will Come A Day
TTITLE10=Let's Make Love
TTITLE11=The Way You Love Me
TTITLE12=I Got My Baby
TTITLE13=That's How Love Moves
TTITLE14=There You'll Be
TTITLE15=Cry
EXTD=
EXTT0=
EXTT1=
EXTT2=
EXTT3=
EXTT4=
EXTT5=
EXTT6=
EXTT7=
EXTT8=
EXTT9=
EXTT10=
EXTT11=
EXTT12=
EXTT13=
EXTT14=
EXTT15=
PLAYORDER=
